<svg aria-hidden="true" style="position:absolute;width:0;height:0;overflow:hidden" xmlns="http://www.w3.org/2000/svg"><defs><symbol id="facebook-icon" viewBox="0 0 16 32"><path fill="#fff" style="fill:var(--color1, #fff)" d="M14.266 15.97H10.09v15.39H3.763V15.97H.754v-5.409h3.009v-3.5c0-2.503 1.182-6.422 6.384-6.422l4.687.02v5.25h-3.401c-.558 0-1.342.28-1.342 1.474v3.183h4.729l-.553 5.403z"/></symbol><symbol id="telegram-icon" viewBox="0 0 40 32"><path fill="#fff" style="fill:var(--color1, #fff)" d="m16.205 20.751-.635 8.339c.909 0 1.302-.364 1.774-.802l4.261-3.801 8.829 6.035c1.619.842 2.76.399 3.197-1.39l5.797-25.346c.514-2.234-.866-3.108-2.443-2.56L2.92 13.398c-2.325.842-2.29 2.052-.395 2.6l8.709 2.528L31.463 6.712c.952-.588 1.818-.263 1.106.326L16.205 20.751z"/></symbol><symbol id="git-icon" viewBox="0 0 32 32"><path fill="#fff" style="fill:var(--color1, #fff)" d="M16 .941C7.729.941.941 7.729.941 16c0 7.058 4.953 13.47 11.529 15.059v-4.982c-.652.143-1.251.147-1.915-.049-.89-.263-1.613-.856-2.15-1.76-.342-.577-.949-1.203-1.581-1.157l-.155-1.758c1.368-.117 2.551.833 3.254 2.013.312.525.671.832 1.132.969.446.131.924.068 1.481-.129.14-1.116.651-1.534 1.037-2.122v-.001c-3.922-.585-5.486-2.666-6.106-4.308-.822-2.181-.381-4.905 1.073-6.627.028-.034.079-.121.06-.183-.667-2.014.146-3.679.176-3.856.769.228.894-.229 3.342 1.258l.423.254c.177.105.121.045.298.032a12.77 12.77 0 0 1 3.16-.445 12.84 12.84 0 0 1 3.204.456l.137.014c-.012-.002.037-.009.12-.058 3.057-1.852 2.947-1.247 3.767-1.513.03.177.831 1.87.172 3.858-.089.274 2.65 2.782 1.132 6.809-.62 1.643-2.184 3.724-6.106 4.309v.001c.503.766 1.107 1.174 1.104 2.755v6.219c6.577-1.589 11.529-8.001 11.529-15.059C31.058 7.728 24.271.94 15.999.94z"/></symbol><symbol id="arrow-icon" viewBox="0 0 32 32"><path d="m27.414 12.586-10-10a2 2 0 0 0-2.828 0l-10 10a2 2 0 1 0 2.828 2.828L14 8.828V28a2 2 0 1 0 4 0V8.828l6.586 6.586c.39.39.902.586 1.414.586s1.024-.195 1.414-.586a2 2 0 0 0 0-2.828z"/></symbol><symbol id="burger-close" viewBox="0 0 32 32"><path fill="none" stroke="#fff" style="stroke:var(--color1, #fff)" stroke-width="2" d="m2.519 2 26.963 28M2 29.481 30 2.518"/></symbol><symbol id="burger" viewBox="0 0 46 32"><path fill="none" stroke="#D41443" style="stroke:var(--color1, #D41443)" stroke-width="2.286" d="M0 2.286h45.714M0 16h45.714M0 29.714h45.714"/></symbol><symbol id="about-icon-close" viewBox="0 0 32 32"><path d="M26.667 7.303l-1.97-1.97-7.808 7.808-7.808-7.808-1.97 1.97 7.808 7.808-7.808 7.808 1.97 1.97 7.808-7.808 7.808 7.808 1.97-1.97-7.808-7.808 7.808-7.808z"></path>
</symbol><symbol id="company-icon" viewBox="0 0 24 24"><path d="M14.016 6.984V5.015H9.985v1.969h4.031zm6 0q.797 0 1.383.609t.586 1.406v3q0 .797-.586 1.406t-1.383.609h-6v-2.016H9.985v2.016h-6q-.844 0-1.406-.586t-.563-1.43v-3q0-.797.586-1.406t1.383-.609h3.984V5.014l2.016-2.016h3.984l2.016 2.016v1.969h4.031zm-10.032 9h4.031V15h6.984v3.984q0 .844-.586 1.43t-1.43.586H5.014q-.844 0-1.43-.586t-.586-1.43V15h6.984v.984z"/></symbol><symbol id="mail-icon" viewBox="0 0 32 32"><path d="M6.004 8h20.993c1.114 0 2.004.893 2.004 1.994v12.012A2 2 0 0 1 26.997 24H6.004A1.995 1.995 0 0 1 4 22.006V9.994A2 2 0 0 1 6.004 8zm-.001 1C5.449 9 5 9.45 5 10.007v11.986A.999.999 0 0 0 6.003 23h20.994c.554 0 1.003-.45 1.003-1.007V10.007A.999.999 0 0 0 26.997 9H6.003zM23 11h3v3h-3v-3zm1 1v1h1v-1h-1zM7 18v1h8v-1H7zm0-7v1h4v-1H7zm0 9v1h8v-1H7z"/></symbol><symbol id="icecream-icon" viewBox="0 0 32 32"><path d="M20.804 10.742c1.448-3.62-1.789-4.217-1.789-4.174 1.022-2.556-1.022-4.26-2.896-4.26s-1.789.853-1.789.853 1.022-.213 1.022.596c0 .81-.938.767-1.874 1.704-.938.937-.49.81-.554.81 1.948-.128 3.088 1.885 5.239 1.149-2.13 1.065-2.641-.628-4.941-.713-.298 0-2.002-.33-2.002 2.928 2.492.288 3.578 2.002 6.943 1.619-3.791 1.405-8.54-4.409-9.2 1.959 0 1.363 1.021 2.048 1.021 2.048h11.757c2.342-1.022 1.193-4.732-.937-4.519zM16.072 31 21.4 15.931H10.627L16.072 31z"/></symbol><symbol id="phone-icon" viewBox="0 0 48 48"><path d="M7 44c0 2.21 1.79 4 4 4h25c2.21 0 4-1.79 4-4V2.5a2.5 2.5 0 0 0-5 0V5H11C8.79 5 7 6.79 7 9v35zm7.2-34h18.6c1.22 0 2.2.98 2.2 2.2v10.6c0 1.22-.98 2.2-2.2 2.2H14.2c-1.22 0-2.2-.98-2.2-2.2V12.2c0-1.22.98-2.2 2.2-2.2zM12 31.5a2.5 2.5 0 0 1 5 0 2.5 2.5 0 0 1-5 0zm9 0a2.5 2.5 0 0 1 5 0 2.5 2.5 0 0 1-5 0zm9 0a2.5 2.5 0 0 1 5 0 2.5 2.5 0 0 1-5 0zm-18 9a2.5 2.5 0 0 1 5 0 2.5 2.5 0 0 1-5 0zm9 0a2.5 2.5 0 0 1 5 0 2.5 2.5 0 0 1-5 0zm9 0a2.5 2.5 0 0 1 5 0 2.5 2.5 0 0 1-5 0z"/></symbol><symbol id="icon-check" viewBox="0 0 32 32"><path d="M27 4 12 19l-7-7-5 5 12 12L32 9z"/></symbol><symbol id="city-icon" viewBox="0 0 24 24"><path d="M18.984 15v-2.016h-1.969V15h1.969zm0 3.984v-1.969h-1.969v1.969h1.969zm-6-12V5.015h-1.969v1.969h1.969zm0 4.032V9h-1.969v2.016h1.969zm0 3.984v-2.016h-1.969V15h1.969zm0 3.984v-1.969h-1.969v1.969h1.969zm-6-7.968V9H5.015v2.016h1.969zm0 3.984v-2.016H5.015V15h1.969zm0 3.984v-1.969H5.015v1.969h1.969zM15 11.016h6V21H3V6.984h6V5.015l3-3 3 3v6z"/></symbol><symbol id="icon-check" viewBox="0 0 32 32"><path d="M27 4 12 19l-7-7-5 5 12 12L32 9z"/></symbol></defs><symbol id="icecream-arrow" viewBox="0 0 24 28"><path d="M.219 15.297 11.313 4.203a.99.99 0 0 1 1.406 0l11.094 11.094c.391.391.25.703-.297.703h-23c-.547 0-.688-.313-.297-.703zM23.016 24h-22c-.547 0-1-.453-1-1v-4c0-.547.453-1 1-1h22c.547 0 1 .453 1 1v4c0 .547-.453 1-1 1z"/></symbol></svg>